<svg width="19" height="19" viewBox="0 0 19 19" fill="none" xmlns="http://www.w3.org/2000/svg">
<path d="M8.764 6.621C7.406 4.207 5.953 2.238 5.847 2.093C4.75033 2.61178 3.78832 3.3769 3.03603 4.32868C2.28373 5.28046 1.76148 6.39316 1.51 7.58C1.716 7.584 4.992 7.623 8.764 6.621ZM9.742 9.261C9.84453 9.22816 9.94755 9.19682 10.051 9.167C9.85128 8.71576 9.63886 8.27025 9.414 7.831C5.368 9.043 1.486 8.955 1.349 8.951C1.346 9.035 1.342 9.117 1.342 9.201C1.342 11.22 2.105 13.062 3.358 14.453L3.353 14.447C3.353 14.447 5.503 10.633 9.742 9.261ZM4.37 15.394V15.39C4.312 15.345 4.25 15.304 4.192 15.255C4.298 15.34 4.37 15.394 4.37 15.394ZM7.317 1.572C7.31202 1.5734 7.30702 1.57474 7.302 1.576C7.308 1.574 7.316 1.574 7.316 1.574L7.317 1.572ZM14.388 3.304C12.9556 2.03901 11.11 1.34154 9.199 1.343C8.56 1.343 7.941 1.421 7.347 1.564C7.467 1.724 8.942 3.683 10.285 6.148C13.247 5.039 14.366 3.336 14.388 3.304ZM9.199 18.4C6.75936 18.3997 4.41971 17.4305 2.69462 15.7054C0.969528 13.9803 0.000265382 11.6406 2.17435e-07 9.201C-0.000262463 7.9928 0.237483 6.79639 0.699658 5.68008C1.16183 4.56378 1.83939 3.54945 2.69362 2.69503C3.54785 1.84061 4.56203 1.16284 5.67823 0.700423C6.79444 0.238005 7.9908 -2.85553e-08 9.199 0C10.4072 -7.13756e-09 11.6037 0.237998 12.7199 0.700404C13.8362 1.16281 14.8504 1.84057 15.7047 2.69497C16.559 3.54938 17.2367 4.56369 17.699 5.68001C18.1613 6.79632 18.3991 7.99275 18.399 9.201C18.3987 11.6408 17.4293 13.9806 15.704 15.7057C13.9787 17.4309 11.6388 18.4 9.199 18.4ZM10.535 10.486C5.924 12.093 4.401 15.324 4.37 15.39C5.74744 16.4702 7.44754 17.0568 9.198 17.056C10.2517 17.0575 11.2949 16.8463 12.265 16.435C12.149 15.746 11.692 13.339 10.586 10.468C10.5691 10.4743 10.5521 10.4803 10.535 10.486ZM10.889 7.32C11.073 7.693 11.247 8.074 11.412 8.459C11.471 8.594 11.526 8.731 11.582 8.865C14.295 8.523 16.967 9.103 17.055 9.121C17.0387 7.32746 16.408 5.59372 15.268 4.209C15.25 4.232 13.989 6.052 10.889 7.32ZM12.06 10.105C13.091 12.941 13.509 15.247 13.589 15.716C14.4811 15.1148 15.2402 14.3369 15.8193 13.4304C16.3985 12.5239 16.7854 11.5081 16.956 10.446C16.8 10.396 14.6 9.699 12.06 10.105Z" fill="white"/>
</svg>
